<svg xmlns="http://www.w3.org/2000/svg" viewBox="0 0 480 480"><g id="_06-immune"><path d="M464,424a24.028,24.028,0,0,1-24-24,8,8,0,0,0-16,0,24.028,24.028,0,0,1-24,24,8,8,0,0,0,0,16,24.028,24.028,0,0,1,24,24,8,8,0,0,0,16,0,24.028,24.028,0,0,1,24-24,8,8,0,0,0,0-16Zm-32,16.025A40.3,40.3,0,0,0,423.975,432,40.3,40.3,0,0,0,432,423.975,40.3,40.3,0,0,0,440.025,432,40.3,40.3,0,0,0,432,440.025Z"/><path d="M352,56a24.028,24.028,0,0,1,24,24,8,8,0,0,0,16,0,24.028,24.028,0,0,1,24-24,8,8,0,0,0,0-16,24.028,24.028,0,0,1-24-24,8,8,0,0,0-16,0,24.028,24.028,0,0,1-24,24,8,8,0,0,0,0,16Zm32-16.025A40.3,40.3,0,0,0,392.025,48,40.3,40.3,0,0,0,384,56.025,40.3,40.3,0,0,0,375.975,48,40.3,40.3,0,0,0,384,39.975Z"/><path d="M96,136a24.028,24.028,0,0,1,24,24,8,8,0,0,0,16,0,24.028,24.028,0,0,1,24-24,8,8,0,0,0,0-16,24.028,24.028,0,0,1-24-24,8,8,0,0,0-16,0,24.028,24.028,0,0,1-24,24,8,8,0,0,0,0,16Zm32-16.025A40.3,40.3,0,0,0,136.025,128,40.3,40.3,0,0,0,128,136.025,40.3,40.3,0,0,0,119.975,128,40.3,40.3,0,0,0,128,119.975Z"/><path d="M468.438,358.656a8,8,0,0,0,2.99-9.627l-96-240a8.009,8.009,0,0,0-3.312-3.889l-80-48a8.012,8.012,0,0,0-5.685-.985l-80,16a8,8,0,0,0-5.586,4.267l-16,32a8,8,0,0,0,.5,8.016l32,48a36.608,36.608,0,0,0,25.28,16.3c24.651,4.17,55.739-12.887,71.716-23.148L339,293.234C323.882,279.294,300.743,264,272,264a214.6,214.6,0,0,0-73.461,12.612,120.248,120.248,0,0,0-10.351-30.5c-10.1-20.313-31.07-47.507-73.658-61.7-49.956-16.653-99-.688-101.06,0l5.051,15.181c.456-.151,46.181-14.925,90.949,0,29.752,9.918,51.313,27.761,64.083,53.033C183.191,271.7,184,288.155,184.005,288.3a8.008,8.008,0,0,0,11.56,6.866C195.872,295.01,226.673,280,272,280c43.038,0,73.052,44,73.344,44.438a8,8,0,0,0,14.527-5.869l-32-176a8,8,0,0,0-12.7-4.948c-11.764,8.9-47.25,31.166-69.881,27.344a20.9,20.9,0,0,1-14.635-9.4l-29.425-44.138,12.175-24.348,73.13-14.626,75.037,45.022,92.515,231.289C432.434,361.851,349.436,408,256,408c-109.688,0-236.789-31.444-238.06-31.761l-3.88,15.522C15.349,392.083,144.307,424,256,424c59.191,0,113.754-17.743,149.1-32.627C443.365,375.263,467.432,359.327,468.438,358.656Z" fill="blueviolet"/></g></svg>